<svg xmlns="http://www.w3.org/2000/svg" width="1500" height="820" viewBox="0 0 1500 820">
  <rect width="1500" height="820" fill="#f8fafc"/>
  <rect x="0" y="0" width="250" height="820" fill="#111827"/>
  <text x="28" y="55" fill="#f8fafc" font-family="Arial" font-size="23" font-weight="700">AI DC Twin</text>
  <text x="28" y="93" fill="#94a3b8" font-family="Arial" font-size="14">Attack scenario</text>
  <rect x="24" y="108" width="200" height="42" rx="8" fill="#1f2937"/><text x="40" y="135" fill="#e5e7eb" font-family="Arial" font-size="14">bmc_compromise ▾</text>
  <text x="28" y="190" fill="#94a3b8" font-family="Arial" font-size="14">Blast-radius hops</text>
  <rect x="35" y="220" width="170" height="5" rx="2" fill="#475569"/><circle cx="110" cy="222" r="9" fill="#38bdf8"/>

  <text x="285" y="55" fill="#0f172a" font-family="Arial" font-size="30" font-weight="700">AI Data Center Security Digital Twin</text>
  <text x="285" y="88" fill="#64748b" font-family="Arial" font-size="16">Structural trust chokepoints · topology + criticality + privilege + bridge status</text>

  <g font-family="Arial">
    <rect x="285" y="120" width="190" height="85" rx="14" fill="#fff" stroke="#e2e8f0"/><text x="310" y="150" fill="#64748b" font-size="14">ASSETS</text><text x="310" y="185" fill="#0f172a" font-size="27" font-weight="700">57</text>
    <rect x="495" y="120" width="190" height="85" rx="14" fill="#fff" stroke="#e2e8f0"/><text x="520" y="150" fill="#64748b" font-size="14">ARTICULATION POINTS</text><text x="520" y="185" fill="#0f172a" font-size="27" font-weight="700">10</text>
    <rect x="705" y="120" width="190" height="85" rx="14" fill="#fff" stroke="#e2e8f0"/><text x="730" y="150" fill="#64748b" font-size="14">TOP SCORE</text><text x="730" y="185" fill="#dc2626" font-size="27" font-weight="700">1.000</text>
    <rect x="915" y="120" width="250" height="85" rx="14" fill="#fff" stroke="#e2e8f0"/><text x="940" y="150" fill="#64748b" font-size="14">GPU NODE TIE</text><text x="940" y="185" fill="#0f172a" font-size="21" font-weight="700">6 × 0.967</text>
  </g>

  <rect x="285" y="245" width="1180" height="500" rx="18" fill="#fff" stroke="#e2e8f0"/>
  <text x="315" y="285" fill="#0f172a" font-family="Arial" font-size="22" font-weight="700">Trust Chokepoint Ranking</text>
  <g font-family="Arial" font-size="15">
    <text x="320" y="330" fill="#64748b" font-weight="700">ASSET</text><text x="660" y="330" fill="#64748b" font-weight="700">KIND</text><text x="900" y="330" fill="#64748b" font-weight="700">DEGREE</text><text x="1010" y="330" fill="#64748b" font-weight="700">BRIDGE</text><text x="1150" y="330" fill="#64748b" font-weight="700">SCORE</text>
    <line x1="315" y1="345" x2="1430" y2="345" stroke="#e2e8f0"/>
    <text x="320" y="385" fill="#0f172a">k8s-control-01</text><text x="660" y="385" fill="#475569">control_plane</text><text x="910" y="385" fill="#475569">9</text><text x="1030" y="385" fill="#16a34a">YES</text><rect x="1150" y="365" width="240" height="24" rx="12" fill="#ef4444"/><text x="1405" y="384" fill="#991b1b" font-weight="700">1.000</text>
    <text x="320" y="445" fill="#0f172a">model-registry-01</text><text x="660" y="445" fill="#475569">model_registry</text><text x="910" y="445" fill="#475569">9</text><text x="1030" y="445" fill="#16a34a">YES</text><rect x="1150" y="425" width="240" height="24" rx="12" fill="#ef4444"/><text x="1405" y="444" fill="#991b1b" font-weight="700">1.000</text>
    <text x="320" y="505" fill="#0f172a">gpu-node-01-01</text><text x="660" y="505" fill="#475569">gpu_node</text><text x="910" y="505" fill="#475569">9</text><text x="1030" y="505" fill="#16a34a">YES</text><rect x="1150" y="485" width="232" height="24" rx="12" fill="#f97316"/><text x="1405" y="504" fill="#9a3412" font-weight="700">0.967</text>
    <text x="320" y="565" fill="#0f172a">gpu-node-01-02</text><text x="660" y="565" fill="#475569">gpu_node</text><text x="910" y="565" fill="#475569">9</text><text x="1030" y="565" fill="#16a34a">YES</text><rect x="1150" y="545" width="232" height="24" rx="12" fill="#f97316"/><text x="1405" y="564" fill="#9a3412" font-weight="700">0.967</text>
    <text x="320" y="625" fill="#0f172a">gpu-node-01-03</text><text x="660" y="625" fill="#475569">gpu_node</text><text x="910" y="625" fill="#475569">9</text><text x="1030" y="625" fill="#16a34a">YES</text><rect x="1150" y="605" width="232" height="24" rx="12" fill="#f97316"/><text x="1405" y="624" fill="#9a3412" font-weight="700">0.967</text>
  </g>
  <rect x="315" y="675" width="1090" height="45" rx="10" fill="#eff6ff"/><text x="335" y="703" fill="#1e40af" font-family="Arial" font-size="15">All six GPU nodes tie at 0.967; displayed tie order is deterministic, not a claim of unequal risk.</text>
</svg>